<svg width="722" height="722" viewBox="0 0 722 722" fill="none" xmlns="http://www.w3.org/2000/svg">
<g clip-path="url(#clip0_34_160)">
<path d="M326.826 127.671C410.814 127.671 485.12 169.145 530.412 232.743C529.181 264.013 526.277 292.7 521.634 319.146C527.143 337.581 530.104 357.117 530.104 377.345C530.104 435.281 505.821 487.543 466.883 524.518C505.619 487.561 529.755 435.435 529.755 377.671C529.755 265.596 438.901 174.741 326.826 174.741C214.751 174.741 123.896 265.596 123.896 377.671C123.896 489.746 214.751 580.601 326.826 580.601C328.707 580.601 330.581 580.573 332.449 580.522C310.03 593.355 285.24 605.669 257.851 617.593C279.862 623.942 303.121 627.345 327.175 627.345C329.936 627.345 332.686 627.299 335.425 627.21C336.077 626.862 336.729 626.514 337.378 626.165L339.858 624.826C339.034 625.273 338.207 625.72 337.378 626.166L335.425 627.21C398.289 625.169 455.281 599.886 498.103 559.67C453.38 601.832 393.119 627.671 326.826 627.671C188.851 627.671 77 515.742 77 377.671C77 239.6 188.851 127.671 326.826 127.671ZM368.47 608.382C367.373 609.05 366.271 609.716 365.165 610.381C366.271 609.716 367.373 609.049 368.47 608.381C368.842 608.154 369.213 607.926 369.584 607.698C369.213 607.926 368.842 608.155 368.47 608.382ZM465.521 525.803C430.509 558.597 383.868 579.123 332.449 580.522C332.644 580.411 332.84 580.301 333.034 580.189C384.188 578.739 430.602 558.356 465.521 525.803ZM530.443 231.975C559.749 272.937 577 323.124 577 377.345C577 449.249 546.664 514.062 498.103 559.67C546.461 514.08 576.651 449.403 576.651 377.671C576.651 323.646 559.526 273.624 530.412 232.743C530.422 232.487 530.434 232.231 530.443 231.975ZM326.826 227.671C409.611 227.671 476.722 294.828 476.722 377.671C476.722 460.513 409.611 527.671 326.826 527.671C244.041 527.671 176.931 460.514 176.931 377.671C176.931 294.828 244.041 227.671 326.826 227.671ZM466.773 524.623C466.357 525.018 465.94 525.412 465.521 525.803C465.939 525.411 466.358 525.019 466.773 524.623ZM521.506 453.178C521.186 453.783 520.866 454.389 520.543 454.992V454.991C520.866 454.388 521.186 453.783 521.506 453.178ZM523.742 448.88C523.458 449.436 523.172 449.99 522.885 450.544C523.172 449.99 523.458 449.436 523.742 448.88ZM552.655 373.879L551.991 376.243C552.312 375.112 552.628 373.977 552.941 372.839C552.846 373.186 552.751 373.533 552.655 373.879ZM561.785 334.664C561.462 336.354 561.131 338.036 560.794 339.712V339.711C560.963 338.873 561.13 338.034 561.295 337.192C561.46 336.351 561.624 335.508 561.785 334.663V334.664ZM522.687 450.927C522.356 451.563 522.023 452.197 521.689 452.83C522.023 452.197 522.356 451.563 522.687 450.927Z" fill="#6644FF"/>
<path d="M571.2 125.908C554.448 -163.157 597.585 141.142 597.585 141.142C661.5 570 661.5 570 287.921 677.496C287.921 677.496 12.4233 766.63 261.535 662.262C510.647 557.894 587.951 414.973 571.2 125.908Z" fill="#6644FF"/>
</g>
<defs>
<clipPath id="clip0_34_160">
<rect width="722" height="722" fill="white"/>
</clipPath>
</defs>
</svg>
