<svg width="542" height="35" viewBox="0 0 542 35" fill="none" xmlns="http://www.w3.org/2000/svg">
<g clip-path="url(#clip0_35_700)">
<path d="M24.0156 27.2632C21.8616 29.2281 18.9969 30.4272 15.8516 30.4272C9.15837 30.4272 3.73244 25.0013 3.73242 18.3081C3.73242 11.6149 9.15836 6.18896 15.8516 6.18896C19.9255 6.18897 23.5274 8.20104 25.7246 11.2837C25.6647 12.8038 25.5262 14.198 25.2998 15.4829C25.5645 16.373 25.7099 17.3154 25.71 18.2915C25.7099 20.6709 24.8628 22.8505 23.457 24.5513C24.8532 22.8525 25.6924 20.6786 25.6924 18.3081C25.6923 12.8733 21.2864 8.46729 15.8516 8.46729C10.4168 8.46741 6.01078 12.8733 6.01074 18.3081C6.01074 23.7429 10.4168 28.1488 15.8516 28.1489C15.9417 28.1489 16.0315 28.1445 16.1211 28.1421C15.0351 28.7631 13.8342 29.3579 12.5078 29.9351C13.5753 30.2426 14.7027 30.4106 15.8691 30.4106C19.0058 30.4105 21.8636 29.2185 24.0156 27.2632ZM22.5625 25.5015C20.8654 27.0854 18.6095 28.0752 16.1211 28.1421C16.1317 28.136 16.1427 28.1306 16.1533 28.1245C18.6267 28.0542 20.8708 27.0714 22.5625 25.5015ZM25.7266 11.2476C27.1479 13.233 27.9881 15.6636 27.9883 18.2915C27.9883 21.6467 26.624 24.683 24.4209 26.8774C26.614 24.6843 27.9707 21.6547 27.9707 18.3081C27.9707 15.6889 27.1372 13.2656 25.7246 11.2837C25.7251 11.2718 25.7261 11.2595 25.7266 11.2476ZM15.8516 11.0366C19.8675 11.0366 23.123 14.2922 23.123 18.3081C23.123 22.324 19.8675 25.5796 15.8516 25.5796C11.8357 25.5795 8.58009 22.324 8.58008 18.3081C8.58008 14.2922 11.8357 11.0367 15.8516 11.0366ZM22.6543 25.4136C22.6236 25.4428 22.5936 25.4726 22.5625 25.5015C22.5935 25.4725 22.6237 25.4429 22.6543 25.4136ZM23.0342 25.0298C22.9802 25.0871 22.9264 25.1446 22.8711 25.2007C22.9263 25.1445 22.9803 25.0873 23.0342 25.0298ZM23.4434 24.5688C23.3534 24.6772 23.2615 24.7838 23.167 24.8882C23.2612 24.7836 23.3537 24.6775 23.4434 24.5688Z" fill="white"/>
<path d="M27.6894 6.10356C26.8774 -7.90928 28.9685 6.84205 28.9685 6.84205C32.0669 27.6316 32.0669 27.6316 13.9571 32.8426C13.9571 32.8426 0.601947 37.1635 12.678 32.1041C24.7541 27.0447 28.5015 20.1164 27.6894 6.10356Z" fill="white"/>
</g>
<g clip-path="url(#clip1_35_700)">
<path d="M63.0156 25.2632C60.8616 27.2281 57.9969 28.4272 54.8516 28.4272C48.1584 28.4272 42.7324 23.0013 42.7324 16.3081C42.7324 9.6149 48.1584 4.18896 54.8516 4.18896C58.9255 4.18897 62.5274 6.20104 64.7246 9.28369C64.6647 10.8038 64.5262 12.198 64.2998 13.4829C64.5645 14.373 64.7099 15.3154 64.71 16.2915C64.7099 18.6709 63.8628 20.8505 62.457 22.5513C63.8532 20.8525 64.6924 18.6786 64.6924 16.3081C64.6923 10.8733 60.2864 6.46729 54.8516 6.46729C49.4168 6.46741 45.0108 10.8733 45.0107 16.3081C45.0107 21.7429 49.4168 26.1488 54.8516 26.1489C54.9417 26.1489 55.0315 26.1445 55.1211 26.1421C54.0351 26.7631 52.8342 27.3579 51.5078 27.9351C52.5753 28.2426 53.7027 28.4106 54.8691 28.4106C58.0058 28.4105 60.8636 27.2185 63.0156 25.2632ZM61.5625 23.5015C59.8654 25.0854 57.6095 26.0752 55.1211 26.1421C55.1317 26.136 55.1427 26.1306 55.1533 26.1245C57.6267 26.0542 59.8708 25.0714 61.5625 23.5015ZM64.7266 9.24756C66.1479 11.233 66.9881 13.6636 66.9883 16.2915C66.9883 19.6467 65.624 22.683 63.4209 24.8774C65.614 22.6843 66.9707 19.6547 66.9707 16.3081C66.9707 13.6889 66.1372 11.2656 64.7246 9.28369C64.7251 9.27177 64.7261 9.2595 64.7266 9.24756ZM54.8516 9.03662C58.8675 9.03662 62.123 12.2922 62.123 16.3081C62.123 20.324 58.8675 23.5796 54.8516 23.5796C50.8357 23.5795 47.5801 20.324 47.5801 16.3081C47.5801 12.2922 50.8357 9.0367 54.8516 9.03662ZM61.6543 23.4136C61.6236 23.4428 61.5936 23.4726 61.5625 23.5015C61.5935 23.4725 61.6237 23.4429 61.6543 23.4136ZM62.0342 23.0298C61.9802 23.0871 61.9264 23.1446 61.8711 23.2007C61.9263 23.1445 61.9803 23.0873 62.0342 23.0298ZM62.4434 22.5688C62.3534 22.6772 62.2615 22.7838 62.167 22.8882C62.2612 22.7836 62.3537 22.6775 62.4434 22.5688Z" fill="white"/>
<path d="M66.6894 6.10356C65.8774 -7.90928 67.9685 6.84205 67.9685 6.84205C71.0669 27.6316 71.0669 27.6316 52.9571 32.8426C52.9571 32.8426 39.6019 37.1635 51.678 32.1041C63.7541 27.0447 67.5015 20.1164 66.6894 6.10356Z" fill="white"/>
</g>
<g clip-path="url(#clip2_35_700)">
<path d="M102.016 24.2632C99.8616 26.2281 96.9969 27.4272 93.8516 27.4272C87.1584 27.4272 81.7324 22.0013 81.7324 15.3081C81.7324 8.6149 87.1584 3.18896 93.8516 3.18896C97.9255 3.18897 101.527 5.20104 103.725 8.28369C103.665 9.8038 103.526 11.198 103.3 12.4829C103.565 13.373 103.71 14.3154 103.71 15.2915C103.71 17.6709 102.863 19.8505 101.457 21.5513C102.853 19.8525 103.692 17.6786 103.692 15.3081C103.692 9.87325 99.2864 5.46729 93.8516 5.46729C88.4168 5.46741 84.0108 9.87333 84.0107 15.3081C84.0107 20.7429 88.4168 25.1488 93.8516 25.1489C93.9417 25.1489 94.0315 25.1445 94.1211 25.1421C93.0351 25.7631 91.8342 26.3579 90.5078 26.9351C91.5753 27.2426 92.7027 27.4106 93.8691 27.4106C97.0058 27.4105 99.8636 26.2185 102.016 24.2632ZM100.562 22.5015C98.8654 24.0854 96.6095 25.0752 94.1211 25.1421C94.1317 25.136 94.1427 25.1306 94.1533 25.1245C96.6267 25.0542 98.8708 24.0714 100.562 22.5015ZM103.727 8.24756C105.148 10.233 105.988 12.6636 105.988 15.2915C105.988 18.6467 104.624 21.683 102.421 23.8774C104.614 21.6843 105.971 18.6547 105.971 15.3081C105.971 12.6889 105.137 10.2656 103.725 8.28369C103.725 8.27177 103.726 8.2595 103.727 8.24756ZM93.8516 8.03662C97.8675 8.03662 101.123 11.2922 101.123 15.3081C101.123 19.324 97.8675 22.5796 93.8516 22.5796C89.8357 22.5795 86.5801 19.324 86.5801 15.3081C86.5801 11.2922 89.8357 8.0367 93.8516 8.03662ZM100.654 22.4136C100.624 22.4428 100.594 22.4726 100.562 22.5015C100.593 22.4725 100.624 22.4429 100.654 22.4136ZM101.034 22.0298C100.98 22.0871 100.926 22.1446 100.871 22.2007C100.926 22.1445 100.98 22.0873 101.034 22.0298ZM101.443 21.5688C101.353 21.6772 101.261 21.7838 101.167 21.8882C101.261 21.7836 101.354 21.6775 101.443 21.5688Z" fill="white"/>
<path d="M105.689 6.10356C104.877 -7.90928 106.969 6.84205 106.969 6.84205C110.067 27.6316 110.067 27.6316 91.9571 32.8426C91.9571 32.8426 78.6019 37.1635 90.678 32.1041C102.754 27.0447 106.501 20.1164 105.689 6.10356Z" fill="white"/>
</g>
<g clip-path="url(#clip3_35_700)">
<path d="M141.016 23.2632C138.862 25.2281 135.997 26.4272 132.852 26.4272C126.158 26.4272 120.732 21.0013 120.732 14.3081C120.732 7.6149 126.158 2.18896 132.852 2.18896C136.926 2.18897 140.527 4.20104 142.725 7.28369C142.665 8.8038 142.526 10.198 142.3 11.4829C142.565 12.373 142.71 13.3154 142.71 14.2915C142.71 16.6709 141.863 18.8505 140.457 20.5513C141.853 18.8525 142.692 16.6786 142.692 14.3081C142.692 8.87325 138.286 4.46729 132.852 4.46729C127.417 4.46741 123.011 8.87333 123.011 14.3081C123.011 19.7429 127.417 24.1488 132.852 24.1489C132.942 24.1489 133.032 24.1445 133.121 24.1421C132.035 24.7631 130.834 25.3579 129.508 25.9351C130.575 26.2426 131.703 26.4106 132.869 26.4106C136.006 26.4105 138.864 25.2185 141.016 23.2632ZM139.562 21.5015C137.865 23.0854 135.609 24.0752 133.121 24.1421C133.132 24.136 133.143 24.1306 133.153 24.1245C135.627 24.0542 137.871 23.0714 139.562 21.5015ZM142.727 7.24756C144.148 9.23301 144.988 11.6636 144.988 14.2915C144.988 17.6467 143.624 20.683 141.421 22.8774C143.614 20.6843 144.971 17.6547 144.971 14.3081C144.971 11.6889 144.137 9.26557 142.725 7.28369C142.725 7.27177 142.726 7.2595 142.727 7.24756ZM132.852 7.03662C136.867 7.03662 140.123 10.2922 140.123 14.3081C140.123 18.324 136.867 21.5796 132.852 21.5796C128.836 21.5795 125.58 18.324 125.58 14.3081C125.58 10.2922 128.836 7.0367 132.852 7.03662ZM139.654 21.4136C139.624 21.4428 139.594 21.4726 139.562 21.5015C139.593 21.4725 139.624 21.4429 139.654 21.4136ZM140.034 21.0298C139.98 21.0871 139.926 21.1446 139.871 21.2007C139.926 21.1445 139.98 21.0873 140.034 21.0298ZM140.443 20.5688C140.353 20.6772 140.261 20.7838 140.167 20.8882C140.261 20.7836 140.354 20.6775 140.443 20.5688Z" fill="white"/>
<path d="M144.689 6.10356C143.877 -7.90928 145.969 6.84205 145.969 6.84205C149.067 27.6316 149.067 27.6316 130.957 32.8426C130.957 32.8426 117.602 37.1635 129.678 32.1041C141.754 27.0447 145.501 20.1164 144.689 6.10356Z" fill="white"/>
</g>
<g clip-path="url(#clip4_35_700)">
<path d="M179.016 23.2632C176.862 25.2281 173.997 26.4272 170.852 26.4272C164.158 26.4272 158.732 21.0013 158.732 14.3081C158.732 7.6149 164.158 2.18896 170.852 2.18896C174.926 2.18897 178.527 4.20104 180.725 7.28369C180.665 8.8038 180.526 10.198 180.3 11.4829C180.565 12.373 180.71 13.3154 180.71 14.2915C180.71 16.6709 179.863 18.8505 178.457 20.5513C179.853 18.8525 180.692 16.6786 180.692 14.3081C180.692 8.87325 176.286 4.46729 170.852 4.46729C165.417 4.46741 161.011 8.87333 161.011 14.3081C161.011 19.7429 165.417 24.1488 170.852 24.1489C170.942 24.1489 171.032 24.1445 171.121 24.1421C170.035 24.7631 168.834 25.3579 167.508 25.9351C168.575 26.2426 169.703 26.4106 170.869 26.4106C174.006 26.4105 176.864 25.2185 179.016 23.2632ZM177.562 21.5015C175.865 23.0854 173.609 24.0752 171.121 24.1421C171.132 24.136 171.143 24.1306 171.153 24.1245C173.627 24.0542 175.871 23.0714 177.562 21.5015ZM180.727 7.24756C182.148 9.23301 182.988 11.6636 182.988 14.2915C182.988 17.6467 181.624 20.683 179.421 22.8774C181.614 20.6843 182.971 17.6547 182.971 14.3081C182.971 11.6889 182.137 9.26557 180.725 7.28369C180.725 7.27177 180.726 7.2595 180.727 7.24756ZM170.852 7.03662C174.867 7.03662 178.123 10.2922 178.123 14.3081C178.123 18.324 174.867 21.5796 170.852 21.5796C166.836 21.5795 163.58 18.324 163.58 14.3081C163.58 10.2922 166.836 7.0367 170.852 7.03662ZM177.654 21.4136C177.624 21.4428 177.594 21.4726 177.562 21.5015C177.593 21.4725 177.624 21.4429 177.654 21.4136ZM178.034 21.0298C177.98 21.0871 177.926 21.1446 177.871 21.2007C177.926 21.1445 177.98 21.0873 178.034 21.0298ZM178.443 20.5688C178.353 20.6772 178.261 20.7838 178.167 20.8882C178.261 20.7836 178.354 20.6775 178.443 20.5688Z" fill="white"/>
<path d="M183.689 6.10356C182.877 -7.90928 184.969 6.84205 184.969 6.84205C188.067 27.6316 188.067 27.6316 169.957 32.8426C169.957 32.8426 156.602 37.1635 168.678 32.1041C180.754 27.0447 184.501 20.1164 183.689 6.10356Z" fill="white"/>
</g>
<g clip-path="url(#clip5_35_700)">
<path d="M217.016 23.2632C214.862 25.2281 211.997 26.4272 208.852 26.4272C202.158 26.4272 196.732 21.0013 196.732 14.3081C196.732 7.6149 202.158 2.18896 208.852 2.18896C212.926 2.18897 216.527 4.20104 218.725 7.28369C218.665 8.8038 218.526 10.198 218.3 11.4829C218.565 12.373 218.71 13.3154 218.71 14.2915C218.71 16.6709 217.863 18.8505 216.457 20.5513C217.853 18.8525 218.692 16.6786 218.692 14.3081C218.692 8.87325 214.286 4.46729 208.852 4.46729C203.417 4.46741 199.011 8.87333 199.011 14.3081C199.011 19.7429 203.417 24.1488 208.852 24.1489C208.942 24.1489 209.032 24.1445 209.121 24.1421C208.035 24.7631 206.834 25.3579 205.508 25.9351C206.575 26.2426 207.703 26.4106 208.869 26.4106C212.006 26.4105 214.864 25.2185 217.016 23.2632ZM215.562 21.5015C213.865 23.0854 211.609 24.0752 209.121 24.1421C209.132 24.136 209.143 24.1306 209.153 24.1245C211.627 24.0542 213.871 23.0714 215.562 21.5015ZM218.727 7.24756C220.148 9.23301 220.988 11.6636 220.988 14.2915C220.988 17.6467 219.624 20.683 217.421 22.8774C219.614 20.6843 220.971 17.6547 220.971 14.3081C220.971 11.6889 220.137 9.26557 218.725 7.28369C218.725 7.27177 218.726 7.2595 218.727 7.24756ZM208.852 7.03662C212.867 7.03662 216.123 10.2922 216.123 14.3081C216.123 18.324 212.867 21.5796 208.852 21.5796C204.836 21.5795 201.58 18.324 201.58 14.3081C201.58 10.2922 204.836 7.0367 208.852 7.03662ZM215.654 21.4136C215.624 21.4428 215.594 21.4726 215.562 21.5015C215.593 21.4725 215.624 21.4429 215.654 21.4136ZM216.034 21.0298C215.98 21.0871 215.926 21.1446 215.871 21.2007C215.926 21.1445 215.98 21.0873 216.034 21.0298ZM216.443 20.5688C216.353 20.6772 216.261 20.7838 216.167 20.8882C216.261 20.7836 216.354 20.6775 216.443 20.5688Z" fill="white"/>
<path d="M222.689 6.10356C221.877 -7.90928 223.969 6.84205 223.969 6.84205C227.067 27.6316 227.067 27.6316 208.957 32.8426C208.957 32.8426 195.602 37.1635 207.678 32.1041C219.754 27.0447 223.501 20.1164 222.689 6.10356Z" fill="white"/>
</g>
<g clip-path="url(#clip6_35_700)">
<path d="M255.016 23.2632C252.862 25.2281 249.997 26.4272 246.852 26.4272C240.158 26.4272 234.732 21.0013 234.732 14.3081C234.732 7.6149 240.158 2.18896 246.852 2.18896C250.926 2.18897 254.527 4.20104 256.725 7.28369C256.665 8.8038 256.526 10.198 256.3 11.4829C256.565 12.373 256.71 13.3154 256.71 14.2915C256.71 16.6709 255.863 18.8505 254.457 20.5513C255.853 18.8525 256.692 16.6786 256.692 14.3081C256.692 8.87325 252.286 4.46729 246.852 4.46729C241.417 4.46741 237.011 8.87333 237.011 14.3081C237.011 19.7429 241.417 24.1488 246.852 24.1489C246.942 24.1489 247.032 24.1445 247.121 24.1421C246.035 24.7631 244.834 25.3579 243.508 25.9351C244.575 26.2426 245.703 26.4106 246.869 26.4106C250.006 26.4105 252.864 25.2185 255.016 23.2632ZM253.562 21.5015C251.865 23.0854 249.609 24.0752 247.121 24.1421C247.132 24.136 247.143 24.1306 247.153 24.1245C249.627 24.0542 251.871 23.0714 253.562 21.5015ZM256.727 7.24756C258.148 9.23301 258.988 11.6636 258.988 14.2915C258.988 17.6467 257.624 20.683 255.421 22.8774C257.614 20.6843 258.971 17.6547 258.971 14.3081C258.971 11.6889 258.137 9.26557 256.725 7.28369C256.725 7.27177 256.726 7.2595 256.727 7.24756ZM246.852 7.03662C250.867 7.03662 254.123 10.2922 254.123 14.3081C254.123 18.324 250.867 21.5796 246.852 21.5796C242.836 21.5795 239.58 18.324 239.58 14.3081C239.58 10.2922 242.836 7.0367 246.852 7.03662ZM253.654 21.4136C253.624 21.4428 253.594 21.4726 253.562 21.5015C253.593 21.4725 253.624 21.4429 253.654 21.4136ZM254.034 21.0298C253.98 21.0871 253.926 21.1446 253.871 21.2007C253.926 21.1445 253.98 21.0873 254.034 21.0298ZM254.443 20.5688C254.353 20.6772 254.261 20.7838 254.167 20.8882C254.261 20.7836 254.354 20.6775 254.443 20.5688Z" fill="white"/>
<path d="M261.689 6.10356C260.877 -7.90928 262.969 6.84205 262.969 6.84205C266.067 27.6316 266.067 27.6316 247.957 32.8426C247.957 32.8426 234.602 37.1635 246.678 32.1041C258.754 27.0447 262.501 20.1164 261.689 6.10356Z" fill="white"/>
</g>
<g clip-path="url(#clip7_35_700)">
<path d="M294.016 24.2632C291.862 26.2281 288.997 27.4272 285.852 27.4272C279.158 27.4272 273.732 22.0013 273.732 15.3081C273.732 8.6149 279.158 3.18896 285.852 3.18896C289.926 3.18897 293.527 5.20104 295.725 8.28369C295.665 9.8038 295.526 11.198 295.3 12.4829C295.565 13.373 295.71 14.3154 295.71 15.2915C295.71 17.6709 294.863 19.8505 293.457 21.5513C294.853 19.8525 295.692 17.6786 295.692 15.3081C295.692 9.87325 291.286 5.46729 285.852 5.46729C280.417 5.46741 276.011 9.87333 276.011 15.3081C276.011 20.7429 280.417 25.1488 285.852 25.1489C285.942 25.1489 286.032 25.1445 286.121 25.1421C285.035 25.7631 283.834 26.3579 282.508 26.9351C283.575 27.2426 284.703 27.4106 285.869 27.4106C289.006 27.4105 291.864 26.2185 294.016 24.2632ZM292.562 22.5015C290.865 24.0854 288.609 25.0752 286.121 25.1421C286.132 25.136 286.143 25.1306 286.153 25.1245C288.627 25.0542 290.871 24.0714 292.562 22.5015ZM295.727 8.24756C297.148 10.233 297.988 12.6636 297.988 15.2915C297.988 18.6467 296.624 21.683 294.421 23.8774C296.614 21.6843 297.971 18.6547 297.971 15.3081C297.971 12.6889 297.137 10.2656 295.725 8.28369C295.725 8.27177 295.726 8.2595 295.727 8.24756ZM285.852 8.03662C289.867 8.03662 293.123 11.2922 293.123 15.3081C293.123 19.324 289.867 22.5796 285.852 22.5796C281.836 22.5795 278.58 19.324 278.58 15.3081C278.58 11.2922 281.836 8.0367 285.852 8.03662ZM292.654 22.4136C292.624 22.4428 292.594 22.4726 292.562 22.5015C292.593 22.4725 292.624 22.4429 292.654 22.4136ZM293.034 22.0298C292.98 22.0871 292.926 22.1446 292.871 22.2007C292.926 22.1445 292.98 22.0873 293.034 22.0298ZM293.443 21.5688C293.353 21.6772 293.261 21.7838 293.167 21.8882C293.261 21.7836 293.354 21.6775 293.443 21.5688Z" fill="white"/>
<path d="M300.689 6.10356C299.877 -7.90928 301.969 6.84205 301.969 6.84205C305.067 27.6316 305.067 27.6316 286.957 32.8426C286.957 32.8426 273.602 37.1635 285.678 32.1041C297.754 27.0447 301.501 20.1164 300.689 6.10356Z" fill="white"/>
</g>
<g clip-path="url(#clip8_35_700)">
<path d="M333.016 25.2632C330.862 27.2281 327.997 28.4272 324.852 28.4272C318.158 28.4272 312.732 23.0013 312.732 16.3081C312.732 9.6149 318.158 4.18896 324.852 4.18896C328.926 4.18897 332.527 6.20104 334.725 9.28369C334.665 10.8038 334.526 12.198 334.3 13.4829C334.565 14.373 334.71 15.3154 334.71 16.2915C334.71 18.6709 333.863 20.8505 332.457 22.5513C333.853 20.8525 334.692 18.6786 334.692 16.3081C334.692 10.8733 330.286 6.46729 324.852 6.46729C319.417 6.46741 315.011 10.8733 315.011 16.3081C315.011 21.7429 319.417 26.1488 324.852 26.1489C324.942 26.1489 325.032 26.1445 325.121 26.1421C324.035 26.7631 322.834 27.3579 321.508 27.9351C322.575 28.2426 323.703 28.4106 324.869 28.4106C328.006 28.4105 330.864 27.2185 333.016 25.2632ZM331.562 23.5015C329.865 25.0854 327.609 26.0752 325.121 26.1421C325.132 26.136 325.143 26.1306 325.153 26.1245C327.627 26.0542 329.871 25.0714 331.562 23.5015ZM334.727 9.24756C336.148 11.233 336.988 13.6636 336.988 16.2915C336.988 19.6467 335.624 22.683 333.421 24.8774C335.614 22.6843 336.971 19.6547 336.971 16.3081C336.971 13.6889 336.137 11.2656 334.725 9.28369C334.725 9.27177 334.726 9.2595 334.727 9.24756ZM324.852 9.03662C328.867 9.03662 332.123 12.2922 332.123 16.3081C332.123 20.324 328.867 23.5796 324.852 23.5796C320.836 23.5795 317.58 20.324 317.58 16.3081C317.58 12.2922 320.836 9.0367 324.852 9.03662ZM331.654 23.4136C331.624 23.4428 331.594 23.4726 331.562 23.5015C331.593 23.4725 331.624 23.4429 331.654 23.4136ZM332.034 23.0298C331.98 23.0871 331.926 23.1446 331.871 23.2007C331.926 23.1445 331.98 23.0873 332.034 23.0298ZM332.443 22.5688C332.353 22.6772 332.261 22.7838 332.167 22.8882C332.261 22.7836 332.354 22.6775 332.443 22.5688Z" fill="white"/>
<path d="M339.689 6.10356C338.877 -7.90928 340.969 6.84205 340.969 6.84205C344.067 27.6316 344.067 27.6316 325.957 32.8426C325.957 32.8426 312.602 37.1635 324.678 32.1041C336.754 27.0447 340.501 20.1164 339.689 6.10356Z" fill="white"/>
</g>
<g clip-path="url(#clip9_35_700)">
<path d="M372.016 26.2632C369.862 28.2281 366.997 29.4272 363.852 29.4272C357.158 29.4272 351.732 24.0013 351.732 17.3081C351.732 10.6149 357.158 5.18896 363.852 5.18896C367.926 5.18897 371.527 7.20104 373.725 10.2837C373.665 11.8038 373.526 13.198 373.3 14.4829C373.565 15.373 373.71 16.3154 373.71 17.2915C373.71 19.6709 372.863 21.8505 371.457 23.5513C372.853 21.8525 373.692 19.6786 373.692 17.3081C373.692 11.8733 369.286 7.46729 363.852 7.46729C358.417 7.46741 354.011 11.8733 354.011 17.3081C354.011 22.7429 358.417 27.1488 363.852 27.1489C363.942 27.1489 364.032 27.1445 364.121 27.1421C363.035 27.7631 361.834 28.3579 360.508 28.9351C361.575 29.2426 362.703 29.4106 363.869 29.4106C367.006 29.4105 369.864 28.2185 372.016 26.2632ZM370.562 24.5015C368.865 26.0854 366.609 27.0752 364.121 27.1421C364.132 27.136 364.143 27.1306 364.153 27.1245C366.627 27.0542 368.871 26.0714 370.562 24.5015ZM373.727 10.2476C375.148 12.233 375.988 14.6636 375.988 17.2915C375.988 20.6467 374.624 23.683 372.421 25.8774C374.614 23.6843 375.971 20.6547 375.971 17.3081C375.971 14.6889 375.137 12.2656 373.725 10.2837C373.725 10.2718 373.726 10.2595 373.727 10.2476ZM363.852 10.0366C367.867 10.0366 371.123 13.2922 371.123 17.3081C371.123 21.324 367.867 24.5796 363.852 24.5796C359.836 24.5795 356.58 21.324 356.58 17.3081C356.58 13.2922 359.836 10.0367 363.852 10.0366ZM370.654 24.4136C370.624 24.4428 370.594 24.4726 370.562 24.5015C370.593 24.4725 370.624 24.4429 370.654 24.4136ZM371.034 24.0298C370.98 24.0871 370.926 24.1446 370.871 24.2007C370.926 24.1445 370.98 24.0873 371.034 24.0298ZM371.443 23.5688C371.353 23.6772 371.261 23.7838 371.167 23.8882C371.261 23.7836 371.354 23.6775 371.443 23.5688Z" fill="white"/>
<path d="M378.689 6.10356C377.877 -7.90928 379.969 6.84205 379.969 6.84205C383.067 27.6316 383.067 27.6316 364.957 32.8426C364.957 32.8426 351.602 37.1635 363.678 32.1041C375.754 27.0447 379.501 20.1164 378.689 6.10356Z" fill="white"/>
</g>
<g clip-path="url(#clip10_35_700)">
<path d="M411.016 27.2632C408.862 29.2281 405.997 30.4272 402.852 30.4272C396.158 30.4272 390.732 25.0013 390.732 18.3081C390.732 11.6149 396.158 6.18896 402.852 6.18896C406.926 6.18897 410.527 8.20104 412.725 11.2837C412.665 12.8038 412.526 14.198 412.3 15.4829C412.565 16.373 412.71 17.3154 412.71 18.2915C412.71 20.6709 411.863 22.8505 410.457 24.5513C411.853 22.8525 412.692 20.6786 412.692 18.3081C412.692 12.8733 408.286 8.46729 402.852 8.46729C397.417 8.46741 393.011 12.8733 393.011 18.3081C393.011 23.7429 397.417 28.1488 402.852 28.1489C402.942 28.1489 403.032 28.1445 403.121 28.1421C402.035 28.7631 400.834 29.3579 399.508 29.9351C400.575 30.2426 401.703 30.4106 402.869 30.4106C406.006 30.4105 408.864 29.2185 411.016 27.2632ZM409.562 25.5015C407.865 27.0854 405.609 28.0752 403.121 28.1421C403.132 28.136 403.143 28.1306 403.153 28.1245C405.627 28.0542 407.871 27.0714 409.562 25.5015ZM412.727 11.2476C414.148 13.233 414.988 15.6636 414.988 18.2915C414.988 21.6467 413.624 24.683 411.421 26.8774C413.614 24.6843 414.971 21.6547 414.971 18.3081C414.971 15.6889 414.137 13.2656 412.725 11.2837C412.725 11.2718 412.726 11.2595 412.727 11.2476ZM402.852 11.0366C406.867 11.0366 410.123 14.2922 410.123 18.3081C410.123 22.324 406.867 25.5796 402.852 25.5796C398.836 25.5795 395.58 22.324 395.58 18.3081C395.58 14.2922 398.836 11.0367 402.852 11.0366ZM409.654 25.4136C409.624 25.4428 409.594 25.4726 409.562 25.5015C409.593 25.4725 409.624 25.4429 409.654 25.4136ZM410.034 25.0298C409.98 25.0871 409.926 25.1446 409.871 25.2007C409.926 25.1445 409.98 25.0873 410.034 25.0298ZM410.443 24.5688C410.353 24.6772 410.261 24.7838 410.167 24.8882C410.261 24.7836 410.354 24.6775 410.443 24.5688Z" fill="white"/>
<path d="M417.689 6.10356C416.877 -7.90928 418.969 6.84205 418.969 6.84205C422.067 27.6316 422.067 27.6316 403.957 32.8426C403.957 32.8426 390.602 37.1635 402.678 32.1041C414.754 27.0447 418.501 20.1164 417.689 6.10356Z" fill="white"/>
</g>
<g clip-path="url(#clip11_35_700)">
<path d="M451.016 27.2632C448.862 29.2281 445.997 30.4272 442.852 30.4272C436.158 30.4272 430.732 25.0013 430.732 18.3081C430.732 11.6149 436.158 6.18896 442.852 6.18896C446.926 6.18897 450.527 8.20104 452.725 11.2837C452.665 12.8038 452.526 14.198 452.3 15.4829C452.565 16.373 452.71 17.3154 452.71 18.2915C452.71 20.6709 451.863 22.8505 450.457 24.5513C451.853 22.8525 452.692 20.6786 452.692 18.3081C452.692 12.8733 448.286 8.46729 442.852 8.46729C437.417 8.46741 433.011 12.8733 433.011 18.3081C433.011 23.7429 437.417 28.1488 442.852 28.1489C442.942 28.1489 443.032 28.1445 443.121 28.1421C442.035 28.7631 440.834 29.3579 439.508 29.9351C440.575 30.2426 441.703 30.4106 442.869 30.4106C446.006 30.4105 448.864 29.2185 451.016 27.2632ZM449.562 25.5015C447.865 27.0854 445.609 28.0752 443.121 28.1421C443.132 28.136 443.143 28.1306 443.153 28.1245C445.627 28.0542 447.871 27.0714 449.562 25.5015ZM452.727 11.2476C454.148 13.233 454.988 15.6636 454.988 18.2915C454.988 21.6467 453.624 24.683 451.421 26.8774C453.614 24.6843 454.971 21.6547 454.971 18.3081C454.971 15.6889 454.137 13.2656 452.725 11.2837C452.725 11.2718 452.726 11.2595 452.727 11.2476ZM442.852 11.0366C446.867 11.0366 450.123 14.2922 450.123 18.3081C450.123 22.324 446.867 25.5796 442.852 25.5796C438.836 25.5795 435.58 22.324 435.58 18.3081C435.58 14.2922 438.836 11.0367 442.852 11.0366ZM449.654 25.4136C449.624 25.4428 449.594 25.4726 449.562 25.5015C449.593 25.4725 449.624 25.4429 449.654 25.4136ZM450.034 25.0298C449.98 25.0871 449.926 25.1446 449.871 25.2007C449.926 25.1445 449.98 25.0873 450.034 25.0298ZM450.443 24.5688C450.353 24.6772 450.261 24.7838 450.167 24.8882C450.261 24.7836 450.354 24.6775 450.443 24.5688Z" fill="white"/>
<path d="M456.689 6.10356C455.877 -7.90928 457.969 6.84205 457.969 6.84205C461.067 27.6316 461.067 27.6316 442.957 32.8426C442.957 32.8426 429.602 37.1635 441.678 32.1041C453.754 27.0447 457.501 20.1164 456.689 6.10356Z" fill="white"/>
</g>
<g clip-path="url(#clip12_35_700)">
<path d="M491.016 27.2632C488.862 29.2281 485.997 30.4272 482.852 30.4272C476.158 30.4272 470.732 25.0013 470.732 18.3081C470.732 11.6149 476.158 6.18896 482.852 6.18896C486.926 6.18897 490.527 8.20104 492.725 11.2837C492.665 12.8038 492.526 14.198 492.3 15.4829C492.565 16.373 492.71 17.3154 492.71 18.2915C492.71 20.6709 491.863 22.8505 490.457 24.5513C491.853 22.8525 492.692 20.6786 492.692 18.3081C492.692 12.8733 488.286 8.46729 482.852 8.46729C477.417 8.46741 473.011 12.8733 473.011 18.3081C473.011 23.7429 477.417 28.1488 482.852 28.1489C482.942 28.1489 483.032 28.1445 483.121 28.1421C482.035 28.7631 480.834 29.3579 479.508 29.9351C480.575 30.2426 481.703 30.4106 482.869 30.4106C486.006 30.4105 488.864 29.2185 491.016 27.2632ZM489.562 25.5015C487.865 27.0854 485.609 28.0752 483.121 28.1421C483.132 28.136 483.143 28.1306 483.153 28.1245C485.627 28.0542 487.871 27.0714 489.562 25.5015ZM492.727 11.2476C494.148 13.233 494.988 15.6636 494.988 18.2915C494.988 21.6467 493.624 24.683 491.421 26.8774C493.614 24.6843 494.971 21.6547 494.971 18.3081C494.971 15.6889 494.137 13.2656 492.725 11.2837C492.725 11.2718 492.726 11.2595 492.727 11.2476ZM482.852 11.0366C486.867 11.0366 490.123 14.2922 490.123 18.3081C490.123 22.324 486.867 25.5796 482.852 25.5796C478.836 25.5795 475.58 22.324 475.58 18.3081C475.58 14.2922 478.836 11.0367 482.852 11.0366ZM489.654 25.4136C489.624 25.4428 489.594 25.4726 489.562 25.5015C489.593 25.4725 489.624 25.4429 489.654 25.4136ZM490.034 25.0298C489.98 25.0871 489.926 25.1446 489.871 25.2007C489.926 25.1445 489.98 25.0873 490.034 25.0298ZM490.443 24.5688C490.353 24.6772 490.261 24.7838 490.167 24.8882C490.261 24.7836 490.354 24.6775 490.443 24.5688Z" fill="white"/>
<path d="M495.689 6.10356C494.877 -7.90928 496.969 6.84205 496.969 6.84205C500.067 27.6316 500.067 27.6316 481.957 32.8426C481.957 32.8426 468.602 37.1635 480.678 32.1041C492.754 27.0447 496.501 20.1164 495.689 6.10356Z" fill="white"/>
</g>
<g clip-path="url(#clip13_35_700)">
<path d="M531.016 27.2632C528.862 29.2281 525.997 30.4272 522.852 30.4272C516.158 30.4272 510.732 25.0013 510.732 18.3081C510.732 11.6149 516.158 6.18896 522.852 6.18896C526.926 6.18897 530.527 8.20104 532.725 11.2837C532.665 12.8038 532.526 14.198 532.3 15.4829C532.565 16.373 532.71 17.3154 532.71 18.2915C532.71 20.6709 531.863 22.8505 530.457 24.5513C531.853 22.8525 532.692 20.6786 532.692 18.3081C532.692 12.8733 528.286 8.46729 522.852 8.46729C517.417 8.46741 513.011 12.8733 513.011 18.3081C513.011 23.7429 517.417 28.1488 522.852 28.1489C522.942 28.1489 523.032 28.1445 523.121 28.1421C522.035 28.7631 520.834 29.3579 519.508 29.9351C520.575 30.2426 521.703 30.4106 522.869 30.4106C526.006 30.4105 528.864 29.2185 531.016 27.2632ZM529.562 25.5015C527.865 27.0854 525.609 28.0752 523.121 28.1421C523.132 28.136 523.143 28.1306 523.153 28.1245C525.627 28.0542 527.871 27.0714 529.562 25.5015ZM532.727 11.2476C534.148 13.233 534.988 15.6636 534.988 18.2915C534.988 21.6467 533.624 24.683 531.421 26.8774C533.614 24.6843 534.971 21.6547 534.971 18.3081C534.971 15.6889 534.137 13.2656 532.725 11.2837C532.725 11.2718 532.726 11.2595 532.727 11.2476ZM522.852 11.0366C526.867 11.0366 530.123 14.2922 530.123 18.3081C530.123 22.324 526.867 25.5796 522.852 25.5796C518.836 25.5795 515.58 22.324 515.58 18.3081C515.58 14.2922 518.836 11.0367 522.852 11.0366ZM529.654 25.4136C529.624 25.4428 529.594 25.4726 529.562 25.5015C529.593 25.4725 529.624 25.4429 529.654 25.4136ZM530.034 25.0298C529.98 25.0871 529.926 25.1446 529.871 25.2007C529.926 25.1445 529.98 25.0873 530.034 25.0298ZM530.443 24.5688C530.353 24.6772 530.261 24.7838 530.167 24.8882C530.261 24.7836 530.354 24.6775 530.443 24.5688Z" fill="white"/>
<path d="M534.689 6.10356C533.877 -7.90928 535.969 6.84205 535.969 6.84205C539.067 27.6316 539.067 27.6316 520.957 32.8426C520.957 32.8426 507.602 37.1635 519.678 32.1041C531.754 27.0447 535.501 20.1164 534.689 6.10356Z" fill="white"/>
</g>
<defs>
<clipPath id="clip0_35_700">
<rect width="35" height="35" fill="white"/>
</clipPath>
<clipPath id="clip1_35_700">
<rect width="35" height="35" fill="white" transform="translate(39)"/>
</clipPath>
<clipPath id="clip2_35_700">
<rect width="35" height="35" fill="white" transform="translate(78)"/>
</clipPath>
<clipPath id="clip3_35_700">
<rect width="35" height="35" fill="white" transform="translate(117)"/>
</clipPath>
<clipPath id="clip4_35_700">
<rect width="35" height="35" fill="white" transform="translate(156)"/>
</clipPath>
<clipPath id="clip5_35_700">
<rect width="35" height="35" fill="white" transform="translate(195)"/>
</clipPath>
<clipPath id="clip6_35_700">
<rect width="35" height="35" fill="white" transform="translate(234)"/>
</clipPath>
<clipPath id="clip7_35_700">
<rect width="35" height="35" fill="white" transform="translate(273)"/>
</clipPath>
<clipPath id="clip8_35_700">
<rect width="35" height="35" fill="white" transform="translate(312)"/>
</clipPath>
<clipPath id="clip9_35_700">
<rect width="35" height="35" fill="white" transform="translate(351)"/>
</clipPath>
<clipPath id="clip10_35_700">
<rect width="35" height="35" fill="white" transform="translate(390)"/>
</clipPath>
<clipPath id="clip11_35_700">
<rect width="35" height="35" fill="white" transform="translate(429)"/>
</clipPath>
<clipPath id="clip12_35_700">
<rect width="35" height="35" fill="white" transform="translate(468)"/>
</clipPath>
<clipPath id="clip13_35_700">
<rect width="35" height="35" fill="white" transform="translate(507)"/>
</clipPath>
</defs>
</svg>
